<svg width="1024" height="1024" viewBox="0 0 1024 1024" fill="none" xmlns="http://www.w3.org/2000/svg">
<path fill-rule="evenodd" clip-rule="evenodd" d="M1024 355.608H583.33C486.293 355.608 407.635 432.305 407.635 526.916C407.635 621.522 486.293 698.218 583.33 698.218H1012.69C935.089 881.789 746.059 1011.4 525.179 1011.4C235.131 1011.4 0 787.903 0 512.2C0 236.5 235.131 13 525.179 13C757.682 13 954.899 156.614 1024 355.608ZM705.268 526.916C705.268 592.5 650.711 645.671 583.414 645.671C516.111 645.671 461.551 592.5 461.551 526.916C461.551 461.326 516.111 408.156 583.414 408.156C650.711 408.156 705.268 461.326 705.268 526.916Z" fill="white"/>
</svg>
