<svg width="5152" height="1002" viewBox="0 0 5152 1002" fill="none" xmlns="http://www.w3.org/2000/svg">
<g clip-path="url(#clip0_1049_167)">
<path d="M1797.87 830.026L1965.11 329.304H2078.27L1908.02 830.026H1797.87ZM1462.38 830.026L1625.62 329.304H1724.76L1563.53 830.026H1462.38ZM1452.37 830.026L1282.12 329.304H1395.28L1558.52 830.026H1452.37ZM1796.86 830.026L1636.63 329.304H1735.78L1899.01 830.026H1796.86ZM2442.55 830.026L2437.54 735.891V572.655C2437.54 538.606 2433.87 510.232 2426.53 487.532C2419.85 464.165 2408.5 446.473 2392.48 434.456C2377.12 421.771 2356.43 415.428 2330.39 415.428C2306.36 415.428 2285.33 420.435 2267.3 430.45C2249.27 440.464 2233.92 456.154 2221.23 477.518L2123.09 441.466C2133.77 419.434 2147.79 399.071 2165.15 380.378C2183.18 361.016 2205.54 345.661 2232.25 334.311C2259.62 322.961 2292.34 317.287 2330.39 317.287C2379.13 317.287 2419.85 326.967 2452.57 346.329C2485.28 365.022 2509.32 392.061 2524.67 427.446C2540.69 462.83 2548.71 505.558 2548.71 555.63L2545.7 830.026H2442.55ZM2298.34 842.044C2238.26 842.044 2191.52 828.691 2158.14 801.986C2125.43 775.281 2109.07 737.56 2109.07 688.823C2109.07 636.748 2126.43 597.024 2161.15 569.651C2196.53 542.278 2245.6 528.592 2308.36 528.592H2442.55V614.716H2344.41C2299.68 614.716 2268.3 621.058 2250.27 633.743C2232.25 645.761 2223.24 663.119 2223.24 685.818C2223.24 705.18 2230.91 720.535 2246.27 731.885C2262.29 742.567 2284.32 747.908 2312.36 747.908C2337.73 747.908 2359.77 742.233 2378.46 730.883C2397.15 719.534 2411.51 704.512 2421.52 685.818C2432.2 667.125 2437.54 646.094 2437.54 622.727H2470.59C2470.59 690.826 2456.91 744.57 2429.53 783.96C2402.16 822.682 2358.43 842.044 2298.34 842.044ZM2662.28 830.026V129.015H2774.45V830.026H2662.28ZM2898.95 830.026V129.015H3011.12V830.026H2898.95ZM3358.95 842.044C3310.21 842.044 3266.81 831.028 3228.76 808.996C3191.37 786.297 3161.66 755.252 3139.63 715.862C3118.27 676.472 3107.58 631.073 3107.58 579.665C3107.58 528.258 3118.6 482.859 3140.63 443.469C3162.66 404.078 3192.71 373.368 3230.76 351.336C3269.48 328.636 3313.55 317.287 3362.95 317.287C3407.68 317.287 3448.07 328.97 3484.13 352.337C3520.18 375.037 3548.55 408.084 3569.25 451.48C3590.61 494.876 3601.3 546.618 3601.3 606.704H3207.73L3222.75 592.684C3222.75 623.395 3229.43 650.1 3242.78 672.8C3256.13 694.831 3273.82 711.856 3295.86 723.873C3317.89 735.891 3342.26 741.899 3368.96 741.899C3399.67 741.899 3425.04 735.223 3445.07 721.87C3465.1 707.85 3480.79 689.824 3492.14 667.792L3591.28 709.853C3577.26 736.558 3559.24 759.925 3537.2 779.954C3515.84 799.983 3490.14 815.339 3460.09 826.021C3430.72 836.703 3397 842.044 3358.95 842.044ZM3229.76 534.6L3213.74 520.58H3496.14L3481.12 534.6C3481.12 507.227 3475.11 484.862 3463.1 467.503C3451.08 449.477 3435.72 436.125 3417.03 427.446C3399 418.099 3379.98 413.425 3359.95 413.425C3339.92 413.425 3319.89 418.099 3299.86 427.446C3279.83 436.125 3263.14 449.477 3249.79 467.503C3236.44 484.862 3229.76 507.227 3229.76 534.6ZM3886.49 842.044C3833.74 842.044 3793.35 829.025 3765.31 802.987C3737.94 776.282 3724.25 738.227 3724.25 688.823V173.079H3835.41V667.792C3835.41 691.159 3840.75 708.852 3851.44 720.869C3862.79 732.886 3879.14 738.895 3900.51 738.895C3907.18 738.895 3914.53 737.56 3922.54 734.889C3930.55 732.219 3939.56 727.211 3949.58 719.867L3990.64 804.99C3973.28 817.008 3955.92 826.021 3938.56 832.029C3921.2 838.706 3903.85 842.044 3886.49 842.044ZM3641.13 425.443V329.304H3970.61V425.443H3641.13ZM4187.5 689.824L4119.4 612.713L4379.78 329.304H4514.98L4187.5 689.824ZM4080.35 830.026V129.015H4192.51V830.026H4080.35ZM4398.81 830.026L4222.55 570.652L4295.66 492.539L4531.99 830.026H4398.81ZM4604.71 830.026V329.304H4715.86V830.026H4604.71ZM4660.78 234.167C4642.78 234.167 4627.08 227.824 4613.73 215.139C4601.05 201.787 4594.69 186.097 4594.69 168.071C4594.69 150.045 4601.05 134.69 4613.73 122.005C4627.08 109.32 4642.78 102.977 4660.78 102.977C4678.82 102.977 4694.16 109.32 4706.84 122.005C4720.19 134.69 4726.87 150.045 4726.87 168.071C4726.87 186.097 4720.19 201.787 4706.84 215.139C4694.16 227.824 4678.82 234.167 4660.78 234.167ZM5047.33 842.044C4994.59 842.044 4954.22 829.025 4926.16 802.987C4898.78 776.282 4885.11 738.227 4885.11 688.823V173.079H4996.26V667.792C4996.26 691.159 5001.63 708.852 5012.28 720.869C5023.65 732.886 5040.02 738.895 5061.36 738.895C5068.03 738.895 5075.39 737.56 5083.42 734.889C5091.4 732.219 5100.42 727.211 5110.44 719.867L5151.49 804.99C5134.12 817.008 5116.8 826.021 5099.43 832.029C5082.06 838.706 5064.7 842.044 5047.33 842.044ZM4801.97 425.443V329.304H5131.46V425.443H4801.97Z" fill="black"/>
<path fill-rule="evenodd" clip-rule="evenodd" d="M1001.44 343.654H570.481C475.583 343.654 398.655 420.583 398.655 515.483C398.655 610.376 475.583 687.307 570.481 687.307H990.379C914.491 871.438 729.625 1001.44 513.61 1001.44C229.952 1001.44 0 777.266 0 500.722C0 224.181 229.952 0 513.61 0C740.993 0 933.866 144.052 1001.44 343.654ZM689.734 515.483C689.734 581.267 636.378 634.6 570.562 634.6C504.742 634.6 451.386 581.267 451.386 515.483C451.386 449.694 504.742 396.362 570.562 396.362C636.378 396.362 689.734 449.694 689.734 515.483Z" fill="black"/>
</g>
<defs>
<clipPath id="clip0_1049_167">
<rect width="5152" height="1002" fill="white"/>
</clipPath>
</defs>
</svg>
