<svg width="500" height="500" viewBox="0 0 500 500" fill="none" xmlns="http://www.w3.org/2000/svg">
<g clip-path="url(#clip0_1_33)">
<rect width="500" height="500" rx="250" fill="white"/>
<path fill-rule="evenodd" clip-rule="evenodd" d="M463 182.842H280.105C239.832 182.842 207.184 215.49 207.184 255.763C207.184 296.036 239.832 328.684 280.105 328.684H458.303C426.097 406.827 347.642 462 255.97 462C135.588 462 38 366.861 38 249.5C38 132.139 135.588 37 255.97 37C352.468 37 434.32 98.1338 463 182.842ZM330.715 255.763C330.715 283.683 308.071 306.316 280.139 306.316C252.206 306.316 229.563 283.683 229.563 255.763C229.563 227.844 252.206 205.211 280.139 205.211C308.071 205.211 330.715 227.844 330.715 255.763Z" fill="black"/>
</g>
<defs>
<clipPath id="clip0_1_33">
<rect width="500" height="500" fill="white"/>
</clipPath>
</defs>
</svg>
