<svg width="48" height="40" viewBox="0 0 48 40" fill="none" xmlns="http://www.w3.org/2000/svg"><g clip-path="url(#clip0_9_10)"><path d="M0 2.66667C0 1.19391 1.43072 0 3.19559 0H44.7383C46.5032 0 47.9339 1.19391 47.9339 2.66667V37.3333C47.9339 38.8061 46.5032 40 44.7383 40H3.19559C1.43072 40 0 38.8061 0 37.3333V2.66667Z" fill="black"/><path d="M27.1625 16C27.1625 14.5272 28.5932 13.3333 30.3581 13.3333H39.9449C41.7098 13.3333 43.1405 14.5272 43.1405 16V24C43.1405 25.4728 41.7098 26.6667 39.9449 26.6667H30.3581C28.5932 26.6667 27.1625 25.4728 27.1625 24V16Z" fill="#CF67F4"/><g filter="url(#filter0_d_9_10)"><path d="M8.78784 8.66658C8.78784 7.93021 9.5032 7.33325 10.3856 7.33325H36.6211C37.7941 7.33325 38.5672 8.35277 38.0651 9.23737L32.2799 19.4291C32.0748 19.7904 32.0748 20.2094 32.2799 20.5707L38.0651 30.7625C38.5672 31.6471 37.7941 32.6666 36.6211 32.6666H10.3856C9.5032 32.6666 8.78784 32.0696 8.78784 31.3333V8.66658Z" fill="white"/></g></g><defs><filter id="filter0_d_9_10" x="4.78784" y="3.33325" width="37.433" height="33.3333" filterUnits="userSpaceOnUse" color-interpolation-filters="sRGB"><feFlood flood-opacity="0" result="BackgroundImageFix"/><feColorMatrix in="SourceAlpha" type="matrix" values="0 0 0 0 0 0 0 0 0 0 0 0 0 0 0 0 0 0 127 0" result="hardAlpha"/><feOffset/><feGaussianBlur stdDeviation="2"/><feComposite in2="hardAlpha" operator="out"/><feColorMatrix type="matrix" values="0 0 0 0 0 0 0 0 0 0 0 0 0 0 0 0 0 0 0.5 0"/><feBlend mode="normal" in2="BackgroundImageFix" result="effect1_dropShadow_9_10"/><feBlend mode="normal" in="SourceGraphic" in2="effect1_dropShadow_9_10" result="shape"/></filter><clipPath id="clip0_9_10"><rect width="47.9339" height="40" fill="white"/></clipPath></defs></svg>